STARTFONT 2.1
FONT -Bitstream-Charter-Medium-R-Normal--14-100-100-100-P-78-ISO8859-15
SIZE 10 100 100
FONTBOUNDINGBOX 14 17 -1 -3

STARTPROPERTIES 25
FONTNAME_REGISTRY ""
FAMILY_NAME "Charter"
FOUNDRY "Bitstream"
WEIGHT_NAME "Medium"
SETWIDTH_NAME "Normal"
SLANT "R"
ADD_STYLE_NAME ""
PIXEL_SIZE 14
POINT_SIZE 100
RESOLUTION_X 100
RESOLUTION_Y 100
SPACING "P"
AVERAGE_WIDTH 78
CHARSET_REGISTRY "ISO8859"
CHARSET_ENCODING "15"
CAP_HEIGHT 9
X_HEIGHT 7
CHARSET_COLLECTIONS "ASCII ISOLATIN1"
FACE_NAME "Bitstream Charter Roman"
COPYRIGHT "Copyright 1987 by Bitstream Inc. Charter Registered trademark of Bitstream Inc."
WEIGHT 10
QUAD_WIDTH 8
DEFAULT_CHAR 0
FONT_DESCENT 3
FONT_ASCENT 14
ENDPROPERTIES

CHARS 191

STARTCHAR space
ENCODING 32
SWIDTH 278 0
DWIDTH 4 0
BBX 1 1 0 0
BITMAP
00
ENDCHAR

STARTCHAR exclam
ENCODING 33
SWIDTH 338 0
DWIDTH 5 0
BBX 2 9 2 0
BITMAP
C0
C0
C0
C0
C0
40
00
C0
C0
ENDCHAR

STARTCHAR quotedbl
ENCODING 34
SWIDTH 331 0
DWIDTH 5 0
BBX 3 4 1 6
BITMAP
A0
A0
A0
A0
ENDCHAR

STARTCHAR numbersign
ENCODING 35
SWIDTH 745 0
DWIDTH 10 0
BBX 8 10 1 0
BITMAP
0A
12
12
7F
24
24
FE
28
48
50
ENDCHAR

STARTCHAR dollar
ENCODING 36
SWIDTH 556 0
DWIDTH 8 0
BBX 7 12 1 -1
BITMAP
10
10
3E
D2
92
D0
7C
16
92
96
F8
10
ENDCHAR

STARTCHAR percent
ENCODING 37
SWIDTH 852 0
DWIDTH 12 0
BBX 11 11 1 0
BITMAP
6080
9100
9100
9200
92C0
9520
6920
0920
1120
1120
20C0
ENDCHAR

STARTCHAR ampersand
ENCODING 38
SWIDTH 704 0
DWIDTH 10 0
BBX 9 9 1 0
BITMAP
3800
4400
4400
6800
7380
8900
8600
C600
7980
ENDCHAR

STARTCHAR quoteright
ENCODING 39
SWIDTH 201 0
DWIDTH 3 0
BBX 2 4 1 6
BITMAP
C0
C0
40
80
ENDCHAR

STARTCHAR parenleft
ENCODING 40
SWIDTH 417 0
DWIDTH 6 0
BBX 4 12 2 -2
BITMAP
30
40
40
80
80
80
80
80
80
40
40
30
ENDCHAR

STARTCHAR parenright
ENCODING 41
SWIDTH 417 0
DWIDTH 6 0
BBX 4 12 0 -2
BITMAP
C0
20
20
10
10
10
10
10
10
20
20
C0
ENDCHAR

STARTCHAR asterisk
ENCODING 42
SWIDTH 500 0
DWIDTH 7 0
BBX 5 5 1 5
BITMAP
20
20
D8
50
50
ENDCHAR

STARTCHAR plus
ENCODING 43
SWIDTH 833 0
DWIDTH 12 0
BBX 9 9 2 0
BITMAP
0800
0800
0800
0800
FF80
0800
0800
0800
0800
ENDCHAR

STARTCHAR comma
ENCODING 44
SWIDTH 278 0
DWIDTH 4 0
BBX 2 4 1 -2
BITMAP
C0
C0
40
80
ENDCHAR

STARTCHAR hyphen
ENCODING 45
SWIDTH 319 0
DWIDTH 4 0
BBX 3 1 1 3
BITMAP
E0
ENDCHAR

STARTCHAR period
ENCODING 46
SWIDTH 278 0
DWIDTH 4 0
BBX 2 2 1 0
BITMAP
C0
C0
ENDCHAR

STARTCHAR slash
ENCODING 47
SWIDTH 481 0
DWIDTH 7 0
BBX 7 10 0 -1
BITMAP
02
04
04
08
10
10
20
40
40
80
ENDCHAR

STARTCHAR zero
ENCODING 48
SWIDTH 556 0
DWIDTH 8 0
BBX 7 9 1 0
BITMAP
38
44
82
82
82
82
82
44
38
ENDCHAR

STARTCHAR one
ENCODING 49
SWIDTH 556 0
DWIDTH 8 0
BBX 4 9 2 0
BITMAP
60
A0
20
20
20
20
20
20
F0
ENDCHAR

STARTCHAR two
ENCODING 50
SWIDTH 556 0
DWIDTH 8 0
BBX 6 9 1 0
BITMAP
78
8C
84
04
0C
18
20
44
FC
ENDCHAR

STARTCHAR three
ENCODING 51
SWIDTH 556 0
DWIDTH 8 0
BBX 6 9 1 0
BITMAP
78
88
84
08
30
0C
04
8C
70
ENDCHAR

STARTCHAR four
ENCODING 52
SWIDTH 556 0
DWIDTH 8 0
BBX 7 9 1 0
BITMAP
08
18
28
48
88
FE
08
08
08
ENDCHAR

STARTCHAR five
ENCODING 53
SWIDTH 556 0
DWIDTH 8 0
BBX 7 9 0 0
BITMAP
7E
40
40
7C
06
02
02
C4
78
ENDCHAR

STARTCHAR six
ENCODING 54
SWIDTH 556 0
DWIDTH 8 0
BBX 7 10 1 0
BITMAP
0C
30
40
C0
BC
C6
82
82
44
38
ENDCHAR

STARTCHAR seven
ENCODING 55
SWIDTH 556 0
DWIDTH 8 0
BBX 7 9 1 0
BITMAP
FE
84
04
08
18
10
20
20
40
ENDCHAR

STARTCHAR eight
ENCODING 56
SWIDTH 556 0
DWIDTH 8 0
BBX 7 9 1 0
BITMAP
3C
44
C2
64
7C
86
82
C6
3C
ENDCHAR

STARTCHAR nine
ENCODING 57
SWIDTH 556 0
DWIDTH 8 0
BBX 7 9 1 0
BITMAP
38
44
82
82
C6
7E
04
18
60
ENDCHAR

STARTCHAR colon
ENCODING 58
SWIDTH 319 0
DWIDTH 4 0
BBX 2 7 1 0
BITMAP
C0
C0
00
00
00
C0
C0
ENDCHAR

STARTCHAR semicolon
ENCODING 59
SWIDTH 319 0
DWIDTH 4 0
BBX 2 9 1 -2
BITMAP
C0
C0
00
00
00
C0
C0
40
80
ENDCHAR

STARTCHAR less
ENCODING 60
SWIDTH 833 0
DWIDTH 12 0
BBX 8 7 2 1
BITMAP
01
0E
70
80
70
0E
01
ENDCHAR

STARTCHAR equal
ENCODING 61
SWIDTH 833 0
DWIDTH 12 0
BBX 8 4 2 2
BITMAP
FF
00
00
FF
ENDCHAR

STARTCHAR greater
ENCODING 62
SWIDTH 833 0
DWIDTH 12 0
BBX 8 7 2 1
BITMAP
C0
30
0E
01
0E
70
80
ENDCHAR

STARTCHAR question
ENCODING 63
SWIDTH 486 0
DWIDTH 7 0
BBX 5 9 1 0
BITMAP
70
88
08
18
20
40
00
60
60
ENDCHAR

STARTCHAR at
ENCODING 64
SWIDTH 942 0
DWIDTH 13 0
BBX 11 12 1 -2
BITMAP
0F00
1080
2040
4720
8920
9120
9120
9240
CD80
4000
3080
0F00
ENDCHAR

STARTCHAR A
ENCODING 65
SWIDTH 639 0
DWIDTH 9 0
BBX 9 9 0 0
BITMAP
0800
1C00
1400
1400
2200
3E00
4300
4100
E380
ENDCHAR

STARTCHAR B
ENCODING 66
SWIDTH 604 0
DWIDTH 8 0
BBX 7 9 1 0
BITMAP
F8
44
46
44
7C
42
42
46
F8
ENDCHAR

STARTCHAR C
ENCODING 67
SWIDTH 632 0
DWIDTH 9 0
BBX 8 9 1 0
BITMAP
1E
61
C1
80
80
80
C1
61
1E
ENDCHAR

STARTCHAR D
ENCODING 68
SWIDTH 694 0
DWIDTH 10 0
BBX 9 9 1 0
BITMAP
FC00
4300
4180
4080
4080
4080
4180
4300
FC00
ENDCHAR

STARTCHAR E
ENCODING 69
SWIDTH 576 0
DWIDTH 8 0
BBX 7 9 1 0
BITMAP
FE
42
40
44
7C
44
40
42
FE
ENDCHAR

STARTCHAR F
ENCODING 70
SWIDTH 537 0
DWIDTH 7 0
BBX 6 9 1 0
BITMAP
FC
44
40
48
78
48
40
40
E0
ENDCHAR

STARTCHAR G
ENCODING 71
SWIDTH 694 0
DWIDTH 10 0
BBX 9 9 1 0
BITMAP
1F00
6100
8000
8000
8380
8100
C100
6100
1F00
ENDCHAR

STARTCHAR H
ENCODING 72
SWIDTH 738 0
DWIDTH 10 0
BBX 9 9 1 0
BITMAP
E380
4100
4100
4100
7F00
4100
4100
4100
E380
ENDCHAR

STARTCHAR I
ENCODING 73
SWIDTH 324 0
DWIDTH 4 0
BBX 3 9 1 0
BITMAP
E0
40
40
40
40
40
40
40
E0
ENDCHAR

STARTCHAR J
ENCODING 74
SWIDTH 444 0
DWIDTH 6 0
BBX 6 9 0 0
BITMAP
1C
08
08
08
08
08
88
98
F0
ENDCHAR

STARTCHAR K
ENCODING 75
SWIDTH 611 0
DWIDTH 9 0
BBX 8 9 1 0
BITMAP
E7
44
48
50
70
58
4C
46
E3
ENDCHAR

STARTCHAR L
ENCODING 76
SWIDTH 520 0
DWIDTH 7 0
BBX 6 9 1 0
BITMAP
E0
40
40
40
40
40
44
44
FC
ENDCHAR

STARTCHAR M
ENCODING 77
SWIDTH 866 0
DWIDTH 12 0
BBX 11 9 1 0
BITMAP
E0E0
60C0
5140
5140
5940
4A40
4E40
4440
E4E0
ENDCHAR

STARTCHAR N
ENCODING 78
SWIDTH 713 0
DWIDTH 10 0
BBX 9 9 1 0
BITMAP
E380
6100
5100
5900
4900
4500
4700
4300
E100
ENDCHAR

STARTCHAR O
ENCODING 79
SWIDTH 731 0
DWIDTH 10 0
BBX 9 9 1 0
BITMAP
1C00
6300
C180
8080
8080
8080
C180
6300
1C00
ENDCHAR

STARTCHAR P
ENCODING 80
SWIDTH 558 0
DWIDTH 8 0
BBX 7 9 1 0
BITMAP
F8
46
42
42
46
78
40
40
E0
ENDCHAR

STARTCHAR Q
ENCODING 81
SWIDTH 731 0
DWIDTH 10 0
BBX 9 11 1 -2
BITMAP
1E00
6300
C180
8080
8080
8080
C180
6300
3E00
0800
0E80
ENDCHAR

STARTCHAR R
ENCODING 82
SWIDTH 646 0
DWIDTH 9 0
BBX 8 9 1 0
BITMAP
F8
44
44
4C
70
48
44
44
E3
ENDCHAR

STARTCHAR S
ENCODING 83
SWIDTH 556 0
DWIDTH 8 0
BBX 7 9 1 0
BITMAP
7E
C2
82
C0
7C
06
82
86
F8
ENDCHAR

STARTCHAR T
ENCODING 84
SWIDTH 597 0
DWIDTH 8 0
BBX 7 9 1 0
BITMAP
FE
92
10
10
10
10
10
10
38
ENDCHAR

STARTCHAR U
ENCODING 85
SWIDTH 694 0
DWIDTH 10 0
BBX 9 9 1 0
BITMAP
E380
4100
4100
4100
4100
4100
4100
6300
3C00
ENDCHAR

STARTCHAR V
ENCODING 86
SWIDTH 618 0
DWIDTH 8 0
BBX 9 9 0 0
BITMAP
E380
4100
6100
2200
3200
1200
1400
1C00
0800
ENDCHAR

STARTCHAR W
ENCODING 87
SWIDTH 928 0
DWIDTH 13 0
BBX 13 9 0 0
BITMAP
E238
4310
4510
6510
25A0
28A0
38A0
18C0
1040
ENDCHAR

STARTCHAR X
ENCODING 88
SWIDTH 600 0
DWIDTH 9 0
BBX 9 9 0 0
BITMAP
F380
2100
3200
1C00
0800
1400
2600
4300
E780
ENDCHAR

STARTCHAR Y
ENCODING 89
SWIDTH 586 0
DWIDTH 8 0
BBX 9 9 0 0
BITMAP
F380
6100
2200
1400
1800
0800
0800
0800
1C00
ENDCHAR

STARTCHAR Z
ENCODING 90
SWIDTH 586 0
DWIDTH 8 0
BBX 7 9 0 0
BITMAP
FE
84
0C
08
10
20
62
42
FE
ENDCHAR

STARTCHAR bracketleft
ENCODING 91
SWIDTH 421 0
DWIDTH 6 0
BBX 3 12 2 -2
BITMAP
E0
80
80
80
80
80
80
80
80
80
80
E0
ENDCHAR

STARTCHAR backslash
ENCODING 92
SWIDTH 481 0
DWIDTH 7 0
BBX 7 10 0 -1
BITMAP
80
40
20
20
10
10
08
04
04
02
ENDCHAR

STARTCHAR bracketright
ENCODING 93
SWIDTH 421 0
DWIDTH 6 0
BBX 3 12 1 -2
BITMAP
E0
20
20
20
20
20
20
20
20
20
20
E0
ENDCHAR

STARTCHAR asciicircum
ENCODING 94
SWIDTH 1000 0
DWIDTH 14 0
BBX 8 4 3 6
BITMAP
18
24
42
81
ENDCHAR

STARTCHAR underscore
ENCODING 95
SWIDTH 500 0
DWIDTH 7 0
BBX 7 1 0 -3
BITMAP
FE
ENDCHAR

STARTCHAR quoteleft
ENCODING 96
SWIDTH 201 0
DWIDTH 3 0
BBX 2 4 1 6
BITMAP
40
80
C0
C0
ENDCHAR

STARTCHAR a
ENCODING 97
SWIDTH 507 0
DWIDTH 7 0
BBX 6 7 1 0
BITMAP
70
C8
18
68
88
98
6C
ENDCHAR

STARTCHAR b
ENCODING 98
SWIDTH 539 0
DWIDTH 7 0
BBX 7 11 0 0
BITMAP
C0
40
40
40
7C
46
42
42
42
44
78
ENDCHAR

STARTCHAR c
ENCODING 99
SWIDTH 446 0
DWIDTH 6 0
BBX 5 7 1 0
BITMAP
30
48
80
80
80
C8
78
ENDCHAR

STARTCHAR d
ENCODING 100
SWIDTH 565 0
DWIDTH 8 0
BBX 7 11 1 0
BITMAP
0C
04
04
04
3C
44
84
84
84
CC
76
ENDCHAR

STARTCHAR e
ENCODING 101
SWIDTH 491 0
DWIDTH 7 0
BBX 6 7 1 0
BITMAP
38
44
84
FC
80
C4
78
ENDCHAR

STARTCHAR f
ENCODING 102
SWIDTH 321 0
DWIDTH 4 0
BBX 4 11 1 0
BITMAP
30
50
40
40
E0
40
40
40
40
40
E0
ENDCHAR

STARTCHAR g
ENCODING 103
SWIDTH 523 0
DWIDTH 7 0
BBX 6 10 1 -3
BITMAP
70
8C
88
70
40
78
8C
84
88
70
ENDCHAR

STARTCHAR h
ENCODING 104
SWIDTH 564 0
DWIDTH 8 0
BBX 7 11 1 0
BITMAP
C0
40
40
40
78
44
44
44
44
44
EE
ENDCHAR

STARTCHAR i
ENCODING 105
SWIDTH 280 0
DWIDTH 4 0
BBX 3 11 1 0
BITMAP
40
40
00
00
C0
40
40
40
40
40
E0
ENDCHAR

STARTCHAR j
ENCODING 106
SWIDTH 266 0
DWIDTH 4 0
BBX 4 14 -1 -3
BITMAP
10
10
00
00
30
10
10
10
10
10
10
10
90
E0
ENDCHAR

STARTCHAR k
ENCODING 107
SWIDTH 518 0
DWIDTH 7 0
BBX 6 11 1 0
BITMAP
C0
40
40
40
4C
48
50
70
58
48
E4
ENDCHAR

STARTCHAR l
ENCODING 108
SWIDTH 282 0
DWIDTH 4 0
BBX 3 11 1 0
BITMAP
C0
40
40
40
40
40
40
40
40
40
E0
ENDCHAR

STARTCHAR m
ENCODING 109
SWIDTH 843 0
DWIDTH 12 0
BBX 11 7 1 0
BITMAP
FFC0
4440
4440
4440
4440
4440
EEE0
ENDCHAR

STARTCHAR n
ENCODING 110
SWIDTH 569 0
DWIDTH 8 0
BBX 7 7 1 0
BITMAP
FC
44
44
44
44
44
EE
ENDCHAR

STARTCHAR o
ENCODING 111
SWIDTH 539 0
DWIDTH 7 0
BBX 6 7 1 0
BITMAP
30
48
84
84
84
48
30
ENDCHAR

STARTCHAR p
ENCODING 112
SWIDTH 551 0
DWIDTH 8 0
BBX 7 10 1 -3
BITMAP
FC
46
42
42
42
44
78
40
40
E0
ENDCHAR

STARTCHAR q
ENCODING 113
SWIDTH 531 0
DWIDTH 8 0
BBX 7 10 1 -3
BITMAP
3C
44
84
84
84
C4
7C
04
04
0E
ENDCHAR

STARTCHAR r
ENCODING 114
SWIDTH 382 0
DWIDTH 5 0
BBX 4 7 1 0
BITMAP
F0
40
40
40
40
40
E0
ENDCHAR

STARTCHAR s
ENCODING 115
SWIDTH 400 0
DWIDTH 6 0
BBX 5 7 1 0
BITMAP
78
88
C0
70
08
88
F0
ENDCHAR

STARTCHAR t
ENCODING 116
SWIDTH 335 0
DWIDTH 5 0
BBX 4 8 1 0
BITMAP
40
F0
40
40
40
40
40
70
ENDCHAR

STARTCHAR u
ENCODING 117
SWIDTH 569 0
DWIDTH 8 0
BBX 7 7 1 0
BITMAP
CC
44
44
44
44
44
3E
ENDCHAR

STARTCHAR v
ENCODING 118
SWIDTH 494 0
DWIDTH 7 0
BBX 7 7 0 0
BITMAP
E6
44
64
24
28
38
10
ENDCHAR

STARTCHAR w
ENCODING 119
SWIDTH 771 0
DWIDTH 11 0
BBX 11 7 0 0
BITMAP
E4E0
4640
6640
2A80
2A80
3980
1100
ENDCHAR

STARTCHAR x
ENCODING 120
SWIDTH 504 0
DWIDTH 7 0
BBX 7 7 0 0
BITMAP
EE
64
28
10
28
4C
EE
ENDCHAR

STARTCHAR y
ENCODING 121
SWIDTH 495 0
DWIDTH 7 0
BBX 7 10 0 -3
BITMAP
E6
44
64
28
28
10
10
10
A0
C0
ENDCHAR

STARTCHAR z
ENCODING 122
SWIDTH 468 0
DWIDTH 6 0
BBX 5 7 1 0
BITMAP
F8
90
30
20
40
C8
F8
ENDCHAR

STARTCHAR braceleft
ENCODING 123
SWIDTH 486 0
DWIDTH 7 0
BBX 5 12 1 -2
BITMAP
18
20
20
20
20
C0
20
20
20
20
20
18
ENDCHAR

STARTCHAR bar
ENCODING 124
SWIDTH 500 0
DWIDTH 7 0
BBX 1 14 3 -3
BITMAP
80
80
80
80
80
80
80
80
80
80
80
80
80
80
ENDCHAR

STARTCHAR braceright
ENCODING 125
SWIDTH 486 0
DWIDTH 7 0
BBX 5 12 1 -2
BITMAP
C0
20
20
20
20
18
20
20
20
20
20
C0
ENDCHAR

STARTCHAR c0126
ENCODING 126
SWIDTH 1000 0
DWIDTH 14 0
BBX 9 2 3 7
BITMAP
3880
CF00
ENDCHAR

STARTCHAR space
ENCODING 160
SWIDTH 278 0
DWIDTH 4 0
BBX 1 1 0 0
BITMAP
00
ENDCHAR

STARTCHAR exclamdown
ENCODING 161
SWIDTH 338 0
DWIDTH 5 0
BBX 2 9 2 0
BITMAP
C0
C0
00
40
C0
C0
C0
C0
C0
ENDCHAR

STARTCHAR cent
ENCODING 162
SWIDTH 556 0
DWIDTH 8 0
BBX 6 10 1 -1
BITMAP
10
10
3C
54
94
90
90
D4
3C
10
ENDCHAR

STARTCHAR sterling
ENCODING 163
SWIDTH 556 0
DWIDTH 8 0
BBX 7 9 1 0
BITMAP
1C
32
20
20
7C
20
20
40
FE
ENDCHAR

STARTCHAR EuroSign
ENCODING 164
SWIDTH 499 0
DWIDTH 7 0
BBX 8 10 -1 0
BITMAP
0F
11
20
FE
20
FC
20
20
11
0E
ENDCHAR

STARTCHAR yen
ENCODING 165
SWIDTH 556 0
DWIDTH 8 0
BBX 8 9 0 0
BITMAP
E7
42
24
EF
10
FF
10
10
38
ENDCHAR

STARTCHAR Scaron
ENCODING 166
SWIDTH 556 0
DWIDTH 8 0
BBX 7 13 1 0
BITMAP
24
18
18
00
7E
C2
82
C0
7C
06
82
86
F8
ENDCHAR

STARTCHAR section
ENCODING 167
SWIDTH 500 0
DWIDTH 7 0
BBX 6 12 1 -2
BITMAP
78
C4
C0
70
58
84
84
68
18
84
88
70
ENDCHAR

STARTCHAR scaron
ENCODING 168
SWIDTH 400 0
DWIDTH 6 0
BBX 5 11 1 0
BITMAP
48
30
30
00
78
88
C0
70
08
88
F0
ENDCHAR

STARTCHAR copyright
ENCODING 169
SWIDTH 900 0
DWIDTH 12 0
BBX 10 11 1 0
BITMAP
1E00
2100
4E80
5280
A040
A040
A040
5280
4E80
2100
1E00
ENDCHAR

STARTCHAR ordfeminine
ENCODING 170
SWIDTH 380 0
DWIDTH 5 0
BBX 4 5 1 4
BITMAP
60
30
D0
90
70
ENDCHAR

STARTCHAR guillemotleft
ENCODING 171
SWIDTH 442 0
DWIDTH 6 0
BBX 5 5 0 1
BITMAP
48
50
90
D0
48
ENDCHAR

STARTCHAR logicalnot
ENCODING 172
SWIDTH 833 0
DWIDTH 12 0
BBX 8 3 2 3
BITMAP
FF
01
01
ENDCHAR

STARTCHAR hyphen
ENCODING 173
SWIDTH 319 0
DWIDTH 4 0
BBX 3 1 1 3
BITMAP
E0
ENDCHAR

STARTCHAR registered
ENCODING 174
SWIDTH 900 0
DWIDTH 12 0
BBX 10 11 1 0
BITMAP
1E00
2100
7C80
9280
9240
9C40
9240
9240
7B80
2100
1E00
ENDCHAR

STARTCHAR macron
ENCODING 175
SWIDTH 500 0
DWIDTH 7 0
BBX 4 1 2 9
BITMAP
F0
ENDCHAR

STARTCHAR degree
ENCODING 176
SWIDTH 329 0
DWIDTH 5 0
BBX 4 4 1 6
BITMAP
60
90
90
60
ENDCHAR

STARTCHAR plusminus
ENCODING 177
SWIDTH 833 0
DWIDTH 12 0
BBX 9 8 2 0
BITMAP
0800
0800
FF80
0800
0800
0000
0000
FF80
ENDCHAR

STARTCHAR twosuperior
ENCODING 178
SWIDTH 367 0
DWIDTH 5 0
BBX 4 6 1 4
BITMAP
60
90
10
20
50
F0
ENDCHAR

STARTCHAR threesuperior
ENCODING 179
SWIDTH 367 0
DWIDTH 5 0
BBX 4 6 1 4
BITMAP
60
90
30
60
10
E0
ENDCHAR

STARTCHAR Zcaron
ENCODING 180
SWIDTH 586 0
DWIDTH 8 0
BBX 7 13 0 0
BITMAP
24
18
18
00
FE
84
0C
08
10
20
62
42
FE
ENDCHAR

STARTCHAR mu
ENCODING 181
SWIDTH 548 0
DWIDTH 7 0
BBX 8 9 -1 -3
BITMAP
26
24
44
44
4D
76
80
80
80
ENDCHAR

STARTCHAR paragraph
ENCODING 182
SWIDTH 484 0
DWIDTH 7 0
BBX 7 10 0 -1
BITMAP
3E
74
F4
F4
74
04
04
04
04
04
ENDCHAR

STARTCHAR periodcentered
ENCODING 183
SWIDTH 278 0
DWIDTH 4 0
BBX 2 2 1 4
BITMAP
C0
C0
ENDCHAR

STARTCHAR zcaron
ENCODING 184
SWIDTH 468 0
DWIDTH 6 0
BBX 5 11 1 0
BITMAP
48
30
30
00
F8
90
30
20
40
C8
F8
ENDCHAR

STARTCHAR onesuperior
ENCODING 185
SWIDTH 367 0
DWIDTH 5 0
BBX 2 6 2 4
BITMAP
40
C0
40
40
40
C0
ENDCHAR

STARTCHAR ordmasculine
ENCODING 186
SWIDTH 405 0
DWIDTH 6 0
BBX 5 5 1 4
BITMAP
70
88
88
88
70
ENDCHAR

STARTCHAR guillemotright
ENCODING 187
SWIDTH 442 0
DWIDTH 6 0
BBX 5 5 1 1
BITMAP
90
58
48
58
90
ENDCHAR

STARTCHAR Ligature_OE
ENCODING 188
SWIDTH 855 0
DWIDTH 12 0
BBX 11 10 1 0
BITMAP
3FC0
4440
8400
8480
8780
8480
8400
8400
4420
3FC0
ENDCHAR

STARTCHAR Ligature_oe
ENCODING 189
SWIDTH 712 0
DWIDTH 10 0
BBX 9 7 1 0
BITMAP
7700
8880
8F80
8800
8800
8880
7700
ENDCHAR

STARTCHAR Ydiaeresis
ENCODING 190
SWIDTH 586 0
DWIDTH 8 0
BBX 9 12 0 0
BITMAP
1400
0000
0000
F380
6100
2200
1400
1800
0800
0800
0800
1C00
ENDCHAR

STARTCHAR questiondown
ENCODING 191
SWIDTH 486 0
DWIDTH 7 0
BBX 5 9 1 0
BITMAP
30
30
00
10
20
C0
80
C8
70
ENDCHAR

STARTCHAR Agrave
ENCODING 192
SWIDTH 639 0
DWIDTH 9 0
BBX 9 13 0 0
BITMAP
3000
1000
0800
0000
0800
1C00
1400
1400
2200
3E00
4300
4100
E380
ENDCHAR

STARTCHAR Aacute
ENCODING 193
SWIDTH 639 0
DWIDTH 9 0
BBX 9 13 0 0
BITMAP
0600
0400
0800
0000
0800
1C00
1400
1400
2200
3E00
4300
4100
E380
ENDCHAR

STARTCHAR Acircumflex
ENCODING 194
SWIDTH 639 0
DWIDTH 9 0
BBX 9 13 0 0
BITMAP
0C00
0C00
1200
0000
0800
1C00
1400
1400
2200
3E00
4300
4100
E380
ENDCHAR

STARTCHAR Atilde
ENCODING 195
SWIDTH 639 0
DWIDTH 9 0
BBX 9 12 0 0
BITMAP
0A00
1600
0000
0800
1C00
1400
1400
2200
3E00
4300
4100
E380
ENDCHAR

STARTCHAR Adieresis
ENCODING 196
SWIDTH 639 0
DWIDTH 9 0
BBX 9 12 0 0
BITMAP
1400
0000
0000
0800
1C00
1400
1400
2200
3E00
4300
4100
E380
ENDCHAR

STARTCHAR Aring
ENCODING 197
SWIDTH 639 0
DWIDTH 9 0
BBX 9 14 0 0
BITMAP
1800
1400
1400
1800
0000
0800
1C00
1400
1400
2200
3E00
4300
4100
E380
ENDCHAR

STARTCHAR AE
ENCODING 198
SWIDTH 866 0
DWIDTH 12 0
BBX 13 9 -1 0
BITMAP
07F8
0308
0500
0910
11F0
1F10
2100
4108
E3F8
ENDCHAR

STARTCHAR Ccedilla
ENCODING 199
SWIDTH 632 0
DWIDTH 9 0
BBX 8 12 1 -3
BITMAP
1E
61
C1
80
80
80
C1
61
1E
0C
04
18
ENDCHAR

STARTCHAR Egrave
ENCODING 200
SWIDTH 576 0
DWIDTH 8 0
BBX 7 13 1 0
BITMAP
60
20
10
00
FE
42
40
44
7C
44
40
42
FE
ENDCHAR

STARTCHAR Eacute
ENCODING 201
SWIDTH 576 0
DWIDTH 8 0
BBX 7 13 1 0
BITMAP
0C
08
10
00
FE
42
40
44
7C
44
40
42
FE
ENDCHAR

STARTCHAR Ecircumflex
ENCODING 202
SWIDTH 576 0
DWIDTH 8 0
BBX 7 13 1 0
BITMAP
18
18
24
00
FE
42
40
44
7C
44
40
42
FE
ENDCHAR

STARTCHAR Edieresis
ENCODING 203
SWIDTH 576 0
DWIDTH 8 0
BBX 7 12 1 0
BITMAP
28
00
00
FE
42
40
44
7C
44
40
42
FE
ENDCHAR

STARTCHAR Igrave
ENCODING 204
SWIDTH 324 0
DWIDTH 4 0
BBX 4 13 0 0
BITMAP
C0
40
20
00
70
20
20
20
20
20
20
20
70
ENDCHAR

STARTCHAR Iacute
ENCODING 205
SWIDTH 324 0
DWIDTH 4 0
BBX 4 13 1 0
BITMAP
30
20
40
00
E0
40
40
40
40
40
40
40
E0
ENDCHAR

STARTCHAR Icircumflex
ENCODING 206
SWIDTH 324 0
DWIDTH 4 0
BBX 4 13 1 0
BITMAP
60
60
90
00
E0
40
40
40
40
40
40
40
E0
ENDCHAR

STARTCHAR Idieresis
ENCODING 207
SWIDTH 324 0
DWIDTH 4 0
BBX 3 12 1 0
BITMAP
A0
00
00
E0
40
40
40
40
40
40
40
E0
ENDCHAR

STARTCHAR Eth
ENCODING 208
SWIDTH 694 0
DWIDTH 10 0
BBX 10 9 0 0
BITMAP
7E00
2180
20C0
2040
FC40
2040
20C0
2180
7E00
ENDCHAR

STARTCHAR Ntilde
ENCODING 209
SWIDTH 713 0
DWIDTH 10 0
BBX 9 12 1 0
BITMAP
0A00
1600
0000
E380
6100
5100
5900
4900
4500
4700
4300
E100
ENDCHAR

STARTCHAR Ograve
ENCODING 210
SWIDTH 731 0
DWIDTH 10 0
BBX 9 13 1 0
BITMAP
3000
1000
0800
0000
1C00
6300
C180
8080
8080
8080
C180
6300
1C00
ENDCHAR

STARTCHAR Oacute
ENCODING 211
SWIDTH 731 0
DWIDTH 10 0
BBX 9 13 1 0
BITMAP
0600
0400
0800
0000
1C00
6300
C180
8080
8080
8080
C180
6300
1C00
ENDCHAR

STARTCHAR Ocircumflex
ENCODING 212
SWIDTH 731 0
DWIDTH 10 0
BBX 9 13 1 0
BITMAP
0C00
0C00
1200
0000
1C00
6300
C180
8080
8080
8080
C180
6300
1C00
ENDCHAR

STARTCHAR Otilde
ENCODING 213
SWIDTH 731 0
DWIDTH 10 0
BBX 9 12 1 0
BITMAP
0A00
1600
0000
1C00
6300
C180
8080
8080
8080
C180
6300
1C00
ENDCHAR

STARTCHAR Odieresis
ENCODING 214
SWIDTH 731 0
DWIDTH 10 0
BBX 9 12 1 0
BITMAP
1400
0000
0000
1C00
6300
C180
8080
8080
8080
C180
6300
1C00
ENDCHAR

STARTCHAR multiply
ENCODING 215
SWIDTH 833 0
DWIDTH 12 0
BBX 8 8 2 0
BITMAP
81
42
24
18
18
24
42
81
ENDCHAR

STARTCHAR Oslash
ENCODING 216
SWIDTH 731 0
DWIDTH 10 0
BBX 9 12 1 -1
BITMAP
0100
0100
1F00
6300
C380
8480
8880
9080
E180
6300
7C00
8000
ENDCHAR

STARTCHAR Ugrave
ENCODING 217
SWIDTH 694 0
DWIDTH 10 0
BBX 9 13 1 0
BITMAP
3000
1000
0800
0000
E380
4100
4100
4100
4100
4100
4100
6300
3C00
ENDCHAR

STARTCHAR Uacute
ENCODING 218
SWIDTH 694 0
DWIDTH 10 0
BBX 9 13 1 0
BITMAP
0600
0400
0800
0000
E380
4100
4100
4100
4100
4100
4100
6300
3C00
ENDCHAR

STARTCHAR Ucircumflex
ENCODING 219
SWIDTH 694 0
DWIDTH 10 0
BBX 9 13 1 0
BITMAP
0C00
0C00
1200
0000
E380
4100
4100
4100
4100
4100
4100
6300
3C00
ENDCHAR

STARTCHAR Udieresis
ENCODING 220
SWIDTH 694 0
DWIDTH 10 0
BBX 9 12 1 0
BITMAP
1400
0000
0000
E380
4100
4100
4100
4100
4100
4100
6300
3C00
ENDCHAR

STARTCHAR Yacute
ENCODING 221
SWIDTH 586 0
DWIDTH 8 0
BBX 9 13 0 0
BITMAP
0600
0400
0800
0000
F380
6100
2200
1400
1800
0800
0800
0800
1C00
ENDCHAR

STARTCHAR Thorn
ENCODING 222
SWIDTH 558 0
DWIDTH 8 0
BBX 7 9 1 0
BITMAP
E0
7C
46
42
42
46
78
40
E0
ENDCHAR

STARTCHAR germandbls
ENCODING 223
SWIDTH 609 0
DWIDTH 8 0
BBX 8 11 0 0
BITMAP
1C
26
42
42
4C
48
4C
43
41
49
EE
ENDCHAR

STARTCHAR agrave
ENCODING 224
SWIDTH 507 0
DWIDTH 7 0
BBX 6 11 1 0
BITMAP
C0
40
20
00
70
C8
18
68
88
98
6C
ENDCHAR

STARTCHAR aacute
ENCODING 225
SWIDTH 507 0
DWIDTH 7 0
BBX 6 11 1 0
BITMAP
18
10
20
00
70
C8
18
68
88
98
6C
ENDCHAR

STARTCHAR acircumflex
ENCODING 226
SWIDTH 507 0
DWIDTH 7 0
BBX 6 11 1 0
BITMAP
30
30
48
00
70
C8
18
68
88
98
6C
ENDCHAR

STARTCHAR atilde
ENCODING 227
SWIDTH 507 0
DWIDTH 7 0
BBX 6 10 1 0
BITMAP
28
58
00
70
C8
18
68
88
98
6C
ENDCHAR

STARTCHAR adieresis
ENCODING 228
SWIDTH 507 0
DWIDTH 7 0
BBX 6 10 1 0
BITMAP
50
00
00
70
C8
18
68
88
98
6C
ENDCHAR

STARTCHAR aring
ENCODING 229
SWIDTH 507 0
DWIDTH 7 0
BBX 6 11 1 0
BITMAP
30
48
30
00
70
C8
18
68
88
98
6C
ENDCHAR

STARTCHAR ae
ENCODING 230
SWIDTH 725 0
DWIDTH 10 0
BBX 9 7 1 0
BITMAP
7700
C880
0880
3F80
C800
8880
7780
ENDCHAR

STARTCHAR ccedilla
ENCODING 231
SWIDTH 446 0
DWIDTH 6 0
BBX 5 10 1 -3
BITMAP
30
48
80
80
80
C8
78
30
10
60
ENDCHAR

STARTCHAR egrave
ENCODING 232
SWIDTH 491 0
DWIDTH 7 0
BBX 6 11 1 0
BITMAP
C0
40
20
00
38
44
84
FC
80
C4
78
ENDCHAR

STARTCHAR eacute
ENCODING 233
SWIDTH 491 0
DWIDTH 7 0
BBX 6 11 1 0
BITMAP
18
10
20
00
38
44
84
FC
80
C4
78
ENDCHAR

STARTCHAR ecircumflex
ENCODING 234
SWIDTH 491 0
DWIDTH 7 0
BBX 6 11 1 0
BITMAP
30
30
48
00
38
44
84
FC
80
C4
78
ENDCHAR

STARTCHAR edieresis
ENCODING 235
SWIDTH 491 0
DWIDTH 7 0
BBX 6 10 1 0
BITMAP
50
00
00
38
44
84
FC
80
C4
78
ENDCHAR

STARTCHAR igrave
ENCODING 236
SWIDTH 280 0
DWIDTH 4 0
BBX 5 11 -1 0
BITMAP
C0
40
20
00
30
10
10
10
10
10
38
ENDCHAR

STARTCHAR iacute
ENCODING 237
SWIDTH 280 0
DWIDTH 4 0
BBX 3 11 1 0
BITMAP
60
40
80
00
C0
40
40
40
40
40
E0
ENDCHAR

STARTCHAR icircumflex
ENCODING 238
SWIDTH 280 0
DWIDTH 4 0
BBX 4 11 0 0
BITMAP
60
60
90
00
60
20
20
20
20
20
70
ENDCHAR

STARTCHAR idieresis
ENCODING 239
SWIDTH 280 0
DWIDTH 4 0
BBX 4 10 0 0
BITMAP
A0
00
00
60
20
20
20
20
20
70
ENDCHAR

STARTCHAR eth
ENCODING 240
SWIDTH 528 0
DWIDTH 7 0
BBX 6 11 1 0
BITMAP
68
30
70
48
38
44
84
84
84
48
30
ENDCHAR

STARTCHAR ntilde
ENCODING 241
SWIDTH 569 0
DWIDTH 8 0
BBX 7 10 1 0
BITMAP
14
2C
00
FC
44
44
44
44
44
EE
ENDCHAR

STARTCHAR ograve
ENCODING 242
SWIDTH 539 0
DWIDTH 7 0
BBX 6 11 1 0
BITMAP
60
20
10
00
30
48
84
84
84
48
30
ENDCHAR

STARTCHAR oacute
ENCODING 243
SWIDTH 539 0
DWIDTH 7 0
BBX 6 11 1 0
BITMAP
0C
08
10
00
30
48
84
84
84
48
30
ENDCHAR

STARTCHAR ocircumflex
ENCODING 244
SWIDTH 539 0
DWIDTH 7 0
BBX 6 11 1 0
BITMAP
18
18
24
00
30
48
84
84
84
48
30
ENDCHAR

STARTCHAR otilde
ENCODING 245
SWIDTH 539 0
DWIDTH 7 0
BBX 6 10 1 0
BITMAP
14
2C
00
30
48
84
84
84
48
30
ENDCHAR

STARTCHAR odieresis
ENCODING 246
SWIDTH 539 0
DWIDTH 7 0
BBX 6 10 1 0
BITMAP
28
00
00
30
48
84
84
84
48
30
ENDCHAR

STARTCHAR divide
ENCODING 247
SWIDTH 833 0
DWIDTH 12 0
BBX 8 7 2 1
BITMAP
18
18
00
FF
00
18
18
ENDCHAR

STARTCHAR oslash
ENCODING 248
SWIDTH 539 0
DWIDTH 7 0
BBX 6 9 1 -1
BITMAP
04
38
48
94
A4
A4
48
70
80
ENDCHAR

STARTCHAR ugrave
ENCODING 249
SWIDTH 569 0
DWIDTH 8 0
BBX 7 11 1 0
BITMAP
60
20
10
00
CC
44
44
44
44
44
3E
ENDCHAR

STARTCHAR uacute
ENCODING 250
SWIDTH 569 0
DWIDTH 8 0
BBX 7 11 1 0
BITMAP
0C
08
10
00
CC
44
44
44
44
44
3E
ENDCHAR

STARTCHAR ucircumflex
ENCODING 251
SWIDTH 569 0
DWIDTH 8 0
BBX 7 11 1 0
BITMAP
18
18
24
00
CC
44
44
44
44
44
3E
ENDCHAR

STARTCHAR udieresis
ENCODING 252
SWIDTH 569 0
DWIDTH 8 0
BBX 7 10 1 0
BITMAP
28
00
00
CC
44
44
44
44
44
3E
ENDCHAR

STARTCHAR yacute
ENCODING 253
SWIDTH 495 0
DWIDTH 7 0
BBX 7 14 0 -3
BITMAP
0C
08
10
00
E6
44
64
28
28
10
10
10
A0
C0
ENDCHAR

STARTCHAR thorn
ENCODING 254
SWIDTH 551 0
DWIDTH 8 0
BBX 7 14 1 -3
BITMAP
C0
40
40
40
7C
46
42
42
42
44
78
40
40
E0
ENDCHAR

STARTCHAR ydieresis
ENCODING 255
SWIDTH 495 0
DWIDTH 7 0
BBX 7 13 0 -3
BITMAP
28
00
00
E6
44
64
28
28
10
10
10
A0
C0
ENDCHAR
ENDFONT
